# xmcd CD database file generated by LOLA_Freedb v0.9beta0
# 
# Track frame offsets:
#      150
#      12141
#      22784
#      36813
#      46429
#      54760
#      68420
#      79140
#      91277
#      103822
#      117840
#      132175
#      145114
#      162399
#      175167
#      192275
#      203204
#      216804
#      228879
#      240863
#      253896
#      266995
#      277621
#      296094
#      320492
# 
# Disc length: 4487 seconds
# 
# Revision: 0 
# Processed by: cddbd v1.5.2PL0 Copyright (c) Steve Scherf et al.
# Submitted via: LOLA_Freedb v0.9beta0
# 
DISCID=54118519
DTITLE=Johnny Cash - Greatest Hits
DYEAR=2006
DGENRE=
TTITLE0=I walk the line
TTITLE1=Big river
TTITLE2=Don´t take your guns to town
TTITLE3=I got stripes
TTITLE4=Five geet high and rising
TTITLE5=Tennessee flat top box
TTITLE6=bonanza
TTITLE7=Ring of fire
TTITLE8=Understand your man
TTITLE9=It ain´t me babe
TTITLE10=Orange blossom special
TTITLE11=The one on the right is on the left
TTITLE12=(Gost) Riders in the sky
TTITLE13=Jackson
TTITLE14=A boy named Sue (Live)
TTITLE15=Daddy sang bass
TTITLE16=If I were a carpenter
TTITLE17=What is truth
TTITLE18=Flesh and blood
TTITLE19=Wanted man
TTITLE20=Man in black
TTITLE21=A thing called love
TTITLE22=Kate
TTITLE23=One piece at a time
TTITLE24=Highway patrolman
EXTD=
EXTT0=
EXTT1=
EXTT2=
EXTT3=
EXTT4=
EXTT5=
EXTT6=
EXTT7=
EXTT8=
EXTT9=
EXTT10=
EXTT11=
EXTT12=
EXTT13=
EXTT14=
EXTT15=
EXTT16=
EXTT17=
EXTT18=
EXTT19=
EXTT20=
EXTT21=
EXTT22=
EXTT23=
EXTT24=
PLAYORDER=
